<svg width="28" height="28" fill="none" xmlns="http://www.w3.org/2000/svg"><path d="M14 2.275c-6.44 0-11.667 5.227-11.667 11.667 0 6.44 5.227 11.666 11.667 11.666h5.833v-2.333H14c-5.063 0-9.333-4.27-9.333-9.333 0-5.064 4.27-9.334 9.333-9.334 5.063 0 9.333 4.27 9.333 9.334v1.668c0 .922-.828 1.832-1.75 1.832-.921 0-1.75-.91-1.75-1.832v-1.668A5.835 5.835 0 0 0 14 8.108a5.835 5.835 0 0 0-5.833 5.834A5.835 5.835 0 0 0 14 19.775a5.8 5.8 0 0 0 4.13-1.715c.758 1.038 2.065 1.715 3.453 1.715 2.299 0 4.084-1.867 4.084-4.165v-1.668c0-6.44-5.227-11.667-11.667-11.667Zm0 15.167a3.495 3.495 0 0 1-3.5-3.5c0-1.937 1.563-3.5 3.5-3.5s3.5 1.563 3.5 3.5c0 1.936-1.563 3.5-3.5 3.5Z" fill="#323232"/></svg>