<svg width="21" height="20" fill="none" xmlns="http://www.w3.org/2000/svg"><path d="M3.406 3.336h2.82L9.376 15H7.07l-.718-2.883H3.266L2.562 15H.259L3.406 3.336Zm2.5 6.883L4.813 5.445 3.726 10.22h2.18Zm7.516 5.008c-.906 0-1.64-.258-2.203-.774-.557-.52-.836-1.268-.836-2.242 0-.615.11-1.115.328-1.5.224-.39.526-.693.906-.906.386-.214.82-.36 1.305-.438a8.975 8.975 0 0 1 1.523-.125h1.586V8.86c0-.312-.083-.55-.25-.71a1.25 1.25 0 0 0-.633-.329 3.591 3.591 0 0 0-.789-.086c-.552 0-1.083.076-1.593.227a7.856 7.856 0 0 0-1.516.64V6.649a8.017 8.017 0 0 1 1.61-.468 8.938 8.938 0 0 1 1.624-.149c.959 0 1.717.138 2.274.414.557.271.953.693 1.187 1.266.24.568.36 1.292.36 2.172 0 .203-.006.463-.016.781-.005.318-.008.636-.008.953 0 .281-.002.547-.008.797-.005.25-.007.461-.007.633 0 .15.007.349.023.594.016.24.052.484.11.734.057.25.145.458.265.625h-2.266a2.326 2.326 0 0 1-.218-.469 2.574 2.574 0 0 1-.102-.508 2.788 2.788 0 0 1-1.156.915 3.849 3.849 0 0 1-1.5.289Zm.75-1.586c.479 0 .851-.13 1.117-.391.27-.266.461-.596.57-.992.115-.401.172-.805.172-1.211v-.156h-.914c-.36 0-.716.026-1.07.078a1.675 1.675 0 0 0-.883.367c-.23.193-.344.513-.344.96 0 .428.117.759.352.993.24.234.573.352 1 .352ZM0 18h19v2H0z" fill="#fff"/></svg>