<svg width="187" height="187" viewBox="0 0 187 187" fill="none" xmlns="http://www.w3.org/2000/svg">
<path d="M93.5 171.417C50.4678 171.417 15.5833 136.532 15.5833 93.4999C15.5833 50.4677 50.4678 15.5833 93.5 15.5833C136.532 15.5833 171.417 50.4677 171.417 93.4999C171.369 136.513 136.513 171.369 93.5 171.417ZM93.5 31.1666C59.0743 31.1666 31.1667 59.0742 31.1667 93.4999C31.1667 127.926 59.0743 155.833 93.5 155.833C127.926 155.833 155.833 127.926 155.833 93.4999C155.795 59.0902 127.91 31.2052 93.5 31.1666ZM132.458 101.292H85.7083V54.5416H101.292V85.7083H132.458V101.292Z" fill="#38FCF7"/>
</svg>
