<svg width="28" height="28" viewBox="0 0 28 28" fill="none" xmlns="http://www.w3.org/2000/svg">
<path d="M14 2.27502C7.55998 2.27502 2.33331 7.50169 2.33331 13.9417C2.33331 20.3817 7.55998 25.6084 14 25.6084H19.8333V23.275H14C8.93665 23.275 4.66665 19.005 4.66665 13.9417C4.66665 8.87836 8.93665 4.60836 14 4.60836C19.0633 4.60836 23.3333 8.87836 23.3333 13.9417V15.61C23.3333 16.5317 22.505 17.4417 21.5833 17.4417C20.6616 17.4417 19.8333 16.5317 19.8333 15.61V13.9417C19.8333 10.7217 17.22 8.10836 14 8.10836C10.78 8.10836 8.16665 10.7217 8.16665 13.9417C8.16665 17.1617 10.78 19.775 14 19.775C15.61 19.775 17.08 19.1217 18.13 18.06C18.8883 19.0984 20.195 19.775 21.5833 19.775C23.8816 19.775 25.6666 17.9084 25.6666 15.61V13.9417C25.6666 7.50169 20.44 2.27502 14 2.27502V2.27502ZM14 17.4417C12.0633 17.4417 10.5 15.8784 10.5 13.9417C10.5 12.005 12.0633 10.4417 14 10.4417C15.9366 10.4417 17.5 12.005 17.5 13.9417C17.5 15.8784 15.9366 17.4417 14 17.4417Z" fill="#323232"/>
</svg>
