<svg width="18" height="17" viewBox="0 0 18 17" fill="none" xmlns="http://www.w3.org/2000/svg">
<path d="M15.7341 16.6069L10.0191 10.8909C7.47678 12.6984 3.97355 12.2562 1.95998 9.87383C-0.0535822 7.49141 0.0942683 3.96349 2.30011 1.7579C4.50537 -0.448656 8.03364 -0.597146 10.4165 1.41631C12.7994 3.42977 13.2417 6.93334 11.4341 9.4759L17.1491 15.1919L15.7351 16.6059L15.7341 16.6069ZM6.54211 1.99988C4.64581 1.99946 3.0098 3.33057 2.62458 5.18733C2.23937 7.04409 3.21082 8.91617 4.95079 9.67014C6.69075 10.4241 8.72101 9.85273 9.81235 8.30195C10.9037 6.75117 10.7562 4.64721 9.45911 3.2639L10.0641 3.8639L9.38211 3.1839L9.37011 3.1719C8.6219 2.41907 7.6035 1.99702 6.54211 1.99988Z" fill="#38FCF7"/>
</svg>
