<svg width="21" height="20" viewBox="0 0 21 20" fill="none" xmlns="http://www.w3.org/2000/svg">
<path d="M3.40625 3.33594H6.22656L9.375 15H7.07031L6.35156 12.1172H3.26562L2.5625 15H0.257812L3.40625 3.33594ZM5.90625 10.2188L4.8125 5.44531L3.72656 10.2188H5.90625ZM13.4219 15.2266C12.5156 15.2266 11.7812 14.9688 11.2188 14.4531C10.6615 13.9323 10.3828 13.1849 10.3828 12.2109C10.3828 11.5964 10.4922 11.0964 10.7109 10.7109C10.9349 10.3203 11.237 10.0182 11.6172 9.80469C12.0026 9.59115 12.4375 9.44531 12.9219 9.36719C13.4062 9.28385 13.9141 9.24219 14.4453 9.24219H16.0312V8.85938C16.0312 8.54688 15.9479 8.3099 15.7812 8.14844C15.6198 7.98698 15.4089 7.8776 15.1484 7.82031C14.8932 7.76302 14.6302 7.73438 14.3594 7.73438C13.8073 7.73438 13.276 7.8099 12.7656 7.96094C12.2604 8.11198 11.7552 8.32552 11.25 8.60156V6.64844C11.7917 6.42969 12.3281 6.27344 12.8594 6.17969C13.3958 6.08073 13.9375 6.03125 14.4844 6.03125C15.4427 6.03125 16.2005 6.16927 16.7578 6.44531C17.3151 6.71615 17.7109 7.13802 17.9453 7.71094C18.1849 8.27865 18.3047 9.0026 18.3047 9.88281C18.3047 10.0859 18.2995 10.3464 18.2891 10.6641C18.2839 10.9818 18.2812 11.2995 18.2812 11.6172C18.2812 11.8984 18.2786 12.1641 18.2734 12.4141C18.2682 12.6641 18.2656 12.875 18.2656 13.0469C18.2656 13.1979 18.2734 13.3958 18.2891 13.6406C18.3047 13.8802 18.3411 14.125 18.3984 14.375C18.4557 14.625 18.5443 14.8333 18.6641 15H16.3984C16.2995 14.8333 16.2266 14.6771 16.1797 14.5312C16.1328 14.3854 16.099 14.2161 16.0781 14.0234C15.7708 14.4349 15.3854 14.7396 14.9219 14.9375C14.4635 15.1302 13.9635 15.2266 13.4219 15.2266ZM14.1719 13.6406C14.651 13.6406 15.0234 13.5104 15.2891 13.25C15.5599 12.9844 15.75 12.6536 15.8594 12.2578C15.974 11.8568 16.0312 11.4531 16.0312 11.0469V10.8906H15.1172C14.7578 10.8906 14.401 10.9167 14.0469 10.9688C13.6927 11.0156 13.3984 11.138 13.1641 11.3359C12.9349 11.5286 12.8203 11.849 12.8203 12.2969C12.8203 12.724 12.9375 13.0547 13.1719 13.2891C13.4115 13.5234 13.7448 13.6406 14.1719 13.6406Z" fill="white"/>
<rect y="18" width="19" height="2" fill="white"/>
</svg>
